
<svg data-logo="logo" xmlns="http://www.w3.org/2000/svg" viewBox="0 0 214 43">
    <g id="logogram" transform="translate(0, 1) rotate(0)"><path d="M20 0.782715C31.0457 0.782715 40 9.73702 40 20.7827V34.7827C40 38.0964 37.3137 40.7827 34 40.7827H21V32.0089C21 30.0068 21.1224 27.9331 22.1725 26.2285C23.6625 23.8096 26.1515 22.0798 29.0764 21.602L29.4595 21.5395C29.7828 21.4286 30 21.1245 30 20.7827C30 20.4409 29.7828 20.1368 29.4595 20.026L29.0764 19.9634C24.836 19.2707 21.512 15.9467 20.8193 11.7063L20.7568 11.3233C20.6459 10.9999 20.3418 10.7827 20 10.7827C19.6582 10.7827 19.3541 10.9999 19.2432 11.3233L19.1807 11.7063C18.7029 14.6313 16.9731 17.1202 14.5542 18.6103C12.8496 19.6603 10.7759 19.7827 8.77382 19.7827H0.0245667C0.545597 9.2016 9.28963 0.782715 20 0.782715Z" fill="#F06225"/><path d="M0 21.7827H8.77382C10.7759 21.7827 12.8495 21.9051 14.5541 22.9551C15.8852 23.7751 17.0076 24.8975 17.8276 26.2286C18.8776 27.9332 19 30.0068 19 32.0089V40.7827H6C2.68629 40.7827 0 38.0964 0 34.7827V21.7827Z" fill="#F06225"/><path d="M40 2.78271C40 3.88728 39.1046 4.78271 38 4.78271C36.8954 4.78271 36 3.88728 36 2.78271C36 1.67815 36.8954 0.782715 38 0.782715C39.1046 0.782715 40 1.67815 40 2.78271Z" fill="#F06225"/></g>
    <g id="logotype" transform="translate(46, 8.5)"><path fill="#111111" d="M15.73 25L6.77 25L6.77 24.65L7.50 24.41Q8.21 24.16 8.41 23.76Q8.63 23.36 8.63 22.62L8.63 22.62L8.63 4.31Q8.63 3.61 8.43 3.21Q8.24 2.81 7.58 2.56L7.58 2.56L6.77 2.25L6.77 1.90L16.78 1.90Q20.91 1.90 23.12 3.46Q25.32 5.01 25.32 7.78L25.32 7.78Q25.32 9.32 24.17 10.86Q23.01 12.40 20.53 13.24L20.53 13.24L25.39 22.90Q25.71 23.50 26.11 23.86Q26.51 24.23 27.18 24.51L27.18 24.51L27.63 24.68L27.63 25L21.37 25L16.19 13.97L13.80 13.97L13.80 22.62Q13.80 23.29 14.02 23.70Q14.23 24.13 14.89 24.34L14.89 24.34L15.73 24.65L15.73 25ZM13.80 2.60L13.80 13.27L15.49 13.27Q18.01 13.27 19.13 11.93Q20.25 10.58 20.25 7.92L20.25 7.92Q20.25 5.22 19.20 3.91Q18.15 2.60 15.66 2.60L15.66 2.60L13.80 2.60ZM37.47 7.64L37.47 7.64Q39.74 7.64 41.35 8.57Q42.96 9.49 43.82 11.09Q44.67 12.68 44.67 14.71L44.67 14.71Q44.67 15.09 44.64 15.50Q44.61 15.90 44.50 16.21L44.50 16.21L34.07 16.21Q34.11 19.99 35.42 21.66Q36.73 23.32 39.32 23.32L39.32 23.32Q41.07 23.32 42.16 22.76Q43.24 22.20 44.19 21.11L44.19 21.11L44.54 21.43Q43.45 23.36 41.65 24.44Q39.84 25.52 37.33 25.52L37.33 25.52Q34.84 25.52 32.91 24.46Q30.99 23.39 29.91 21.39Q28.82 19.40 28.82 16.63L28.82 16.63Q28.82 13.76 30.08 11.75Q31.34 9.74 33.32 8.69Q35.30 7.64 37.47 7.64ZM37.36 8.34L37.36 8.34Q36.34 8.34 35.63 8.95Q34.91 9.56 34.51 11.12Q34.11 12.68 34.07 15.51L34.07 15.51L40.05 15.51Q40.41 11.70 39.78 10.02Q39.15 8.34 37.36 8.34ZM51.54 25.52L51.54 25.52Q49.51 25.52 48.12 24.37Q46.74 23.21 46.74 21.04L46.74 21.04Q46.74 19.40 48.42 18.02Q50.10 16.63 53.70 15.93L53.70 15.93Q54.27 15.83 54.97 15.71Q55.67 15.58 56.44 15.44L56.44 15.44L56.44 12.68Q56.44 10.30 55.86 9.34Q55.28 8.38 54.05 8.38L54.05 8.38Q53.22 8.38 52.73 8.92Q52.23 9.46 52.09 10.79L52.09 10.79L52.03 11.17Q51.95 12.68 51.29 13.38Q50.63 14.08 49.65 14.08L49.65 14.08Q48.73 14.08 48.14 13.52Q47.55 12.96 47.55 12.01L47.55 12.01Q47.55 10.58 48.54 9.60Q49.54 8.62 51.19 8.13Q52.83 7.64 54.76 7.64L54.76 7.64Q57.87 7.64 59.57 9.16Q61.27 10.68 61.27 14.11L61.27 14.11L61.27 21.85Q61.27 23.43 62.73 23.43L62.73 23.43L63.51 23.43L63.82 23.70Q63.16 24.55 62.37 25Q61.58 25.45 60.15 25.45L60.15 25.45Q58.61 25.45 57.71 24.74Q56.82 24.02 56.54 22.83L56.54 22.83Q55.49 23.95 54.39 24.74Q53.29 25.52 51.54 25.52ZM53.67 23.39L53.67 23.39Q54.37 23.39 54.98 23.06Q55.59 22.73 56.44 22.02L56.44 22.02L56.44 16.14Q56.09 16.21 55.73 16.28Q55.39 16.35 54.93 16.42L54.93 16.42Q53.32 16.84 52.36 17.84Q51.40 18.84 51.40 20.52L51.40 20.52Q51.40 21.95 52.06 22.67Q52.73 23.39 53.67 23.39ZM73.03 25L64.66 25L64.66 24.65L65.08 24.51Q66.34 24.09 66.34 22.76L66.34 22.76L66.34 4.03Q66.34 3.33 66.06 2.97Q65.78 2.60 65.08 2.42L65.08 2.42L64.63 2.32L64.63 1.97L71.03 0.46L71.45 0.78L71.31 5.68L71.31 17.65Q71.31 18.95 71.33 20.22Q71.34 21.50 71.34 22.76L71.34 22.76Q71.34 23.46 71.63 23.90Q71.91 24.34 72.57 24.55L72.57 24.55L73.03 24.65L73.03 25ZM83.35 7.64L83.35 7.64Q85.63 7.64 87.24 8.57Q88.85 9.49 89.70 11.09Q90.56 12.68 90.56 14.71L90.56 14.71Q90.56 15.09 90.53 15.50Q90.49 15.90 90.39 16.21L90.39 16.21L79.96 16.21Q79.99 19.99 81.30 21.66Q82.62 23.32 85.21 23.32L85.21 23.32Q86.96 23.32 88.04 22.76Q89.13 22.20 90.07 21.11L90.07 21.11L90.42 21.43Q89.34 23.36 87.53 24.44Q85.73 25.52 83.21 25.52L83.21 25.52Q80.73 25.52 78.80 24.46Q76.88 23.39 75.79 21.39Q74.71 19.40 74.71 16.63L74.71 16.63Q74.71 13.76 75.97 11.75Q77.23 9.74 79.20 8.69Q81.18 7.64 83.35 7.64ZM83.25 8.34L83.25 8.34Q82.23 8.34 81.51 8.95Q80.80 9.56 80.39 11.12Q79.99 12.68 79.96 15.51L79.96 15.51L85.94 15.51Q86.29 11.70 85.66 10.02Q85.03 8.34 83.25 8.34ZM98.37 25.52L98.37 25.52Q96.65 25.52 95.29 25.12Q93.92 24.72 92.77 24.13L92.77 24.13L92.80 19.96L93.15 19.96L94.34 22.06Q95.11 23.46 96.04 24.14Q96.97 24.82 98.40 24.82L98.40 24.82Q100.08 24.82 101.11 24.07Q102.15 23.32 102.15 22.06L102.15 22.06Q102.15 20.91 101.41 20.17Q100.68 19.43 98.68 18.84L98.68 18.84L97.21 18.38Q95.08 17.75 93.85 16.42Q92.63 15.09 92.63 13.17L92.63 13.17Q92.63 10.86 94.45 9.25Q96.27 7.64 99.66 7.64L99.66 7.64Q101.03 7.64 102.23 7.94Q103.44 8.23 104.56 8.83L104.56 8.83L104.35 12.61L104.00 12.61L102.78 10.44Q102.11 9.28 101.46 8.81Q100.82 8.34 99.52 8.34L99.52 8.34Q98.33 8.34 97.28 9.00Q96.23 9.67 96.23 10.89L96.23 10.89Q96.23 12.08 97.12 12.78Q98.02 13.48 99.77 14.08L99.77 14.08L101.34 14.53Q103.86 15.30 104.95 16.65Q106.03 18 106.03 19.89L106.03 19.89Q106.03 22.45 104.02 23.98Q102.01 25.52 98.37 25.52ZM114.22 25.52L114.22 25.52Q111.98 25.52 110.74 24.41Q109.50 23.29 109.50 20.84L109.50 20.84L109.50 8.86L107.08 8.86L107.08 8.51L107.92 8.38Q109.01 8.13 109.79 7.67Q110.58 7.22 111.35 6.45L111.35 6.45L114.22 3.26L114.57 3.26L114.47 8.16L118.39 8.16L118.39 8.86L114.43 8.86L114.43 21.46Q114.43 22.69 114.97 23.32Q115.52 23.95 116.36 23.95L116.36 23.95Q117.09 23.95 117.65 23.58Q118.21 23.21 118.77 22.59L118.77 22.59L119.12 22.93Q118.42 24.13 117.20 24.82Q115.97 25.52 114.22 25.52ZM125.32 25.52L125.32 25.52Q123.29 25.52 121.90 24.37Q120.52 23.21 120.52 21.04L120.52 21.04Q120.52 19.40 122.20 18.02Q123.88 16.63 127.49 15.93L127.49 15.93Q128.05 15.83 128.75 15.71Q129.45 15.58 130.22 15.44L130.22 15.44L130.22 12.68Q130.22 10.30 129.64 9.34Q129.06 8.38 127.84 8.38L127.84 8.38Q127.00 8.38 126.51 8.92Q126.02 9.46 125.88 10.79L125.88 10.79L125.81 11.17Q125.74 12.68 125.07 13.38Q124.41 14.08 123.43 14.08L123.43 14.08Q122.52 14.08 121.92 13.52Q121.33 12.96 121.33 12.01L121.33 12.01Q121.33 10.58 122.32 9.60Q123.32 8.62 124.97 8.13Q126.61 7.64 128.54 7.64L128.54 7.64Q131.65 7.64 133.35 9.16Q135.05 10.68 135.05 14.11L135.05 14.11L135.05 21.85Q135.05 23.43 136.52 23.43L136.52 23.43L137.29 23.43L137.60 23.70Q136.94 24.55 136.15 25Q135.36 25.45 133.93 25.45L133.93 25.45Q132.39 25.45 131.49 24.74Q130.60 24.02 130.32 22.83L130.32 22.83Q129.27 23.95 128.17 24.74Q127.07 25.52 125.32 25.52ZM127.45 23.39L127.45 23.39Q128.15 23.39 128.76 23.06Q129.38 22.73 130.22 22.02L130.22 22.02L130.22 16.14Q129.87 16.21 129.52 16.28Q129.17 16.35 128.71 16.42L128.71 16.42Q127.10 16.84 126.14 17.84Q125.18 18.84 125.18 20.52L125.18 20.52Q125.18 21.95 125.84 22.67Q126.51 23.39 127.45 23.39ZM144.99 25.52L144.99 25.52Q142.75 25.52 141.50 24.41Q140.26 23.29 140.26 20.84L140.26 20.84L140.26 8.86L137.85 8.86L137.85 8.51L138.69 8.38Q139.77 8.13 140.56 7.67Q141.35 7.22 142.12 6.45L142.12 6.45L144.99 3.26L145.34 3.26L145.23 8.16L149.15 8.16L149.15 8.86L145.20 8.86L145.20 21.46Q145.20 22.69 145.74 23.32Q146.28 23.95 147.12 23.95L147.12 23.95Q147.86 23.95 148.42 23.58Q148.98 23.21 149.54 22.59L149.54 22.59L149.89 22.93Q149.19 24.13 147.96 24.82Q146.74 25.52 144.99 25.52ZM159.76 7.64L159.76 7.64Q162.03 7.64 163.64 8.57Q165.25 9.49 166.11 11.09Q166.97 12.68 166.97 14.71L166.97 14.71Q166.97 15.09 166.93 15.50Q166.90 15.90 166.79 16.21L166.79 16.21L156.36 16.21Q156.40 19.99 157.71 21.66Q159.02 23.32 161.61 23.32L161.61 23.32Q163.36 23.32 164.45 22.76Q165.53 22.20 166.48 21.11L166.48 21.11L166.83 21.43Q165.74 23.36 163.94 24.44Q162.14 25.52 159.62 25.52L159.62 25.52Q157.13 25.52 155.21 24.46Q153.28 23.39 152.20 21.39Q151.11 19.40 151.11 16.63L151.11 16.63Q151.11 13.76 152.37 11.75Q153.63 9.74 155.61 8.69Q157.59 7.64 159.76 7.64ZM159.65 8.34L159.65 8.34Q158.64 8.34 157.92 8.95Q157.20 9.56 156.80 11.12Q156.40 12.68 156.36 15.51L156.36 15.51L162.34 15.51Q162.70 11.70 162.06 10.02Q161.44 8.34 159.65 8.34Z"/></g>
    
  </svg>
